# AST/ASF file generated using VICON BodyLanguage
# -----------------------------------------------
:version 1.10
:name VICON
:units
  mass 1.0
  length 0.45
  angle deg
:documentation
   .ast/.asf automatically generated from VICON data using
   VICON BodyBuilder and BodyLanguage model FoxedUp or BRILLIANT.MOD
:root
   order TX TY TZ RX RY RZ
   axis XYZ
   position 0 0 0  
   orientation 0 0 0 
:bonedata
  begin
     id 1 
     name lhipjoint
     direction 0.645422 -0.672597 0.361999 
     length 2.39934 
     axis 0 0 0  XYZ
  end
  begin
     id 2 
     name lfemur
     direction 0.34202 -0.939693 0  
     length 6.58112  
     axis 0 0 20  XYZ
    dof rx ry rz
    limits (-160.0 20.0)
           (-70.0 70.0)
           (-60.0 70.0)
  end
  begin
     id 3 
     name ltibia
     direction 0.34202 -0.939693 0   
     length 7.02673   
     axis 0 0 20   XYZ
    dof rx
    limits (-10.0 170.0)
  end
  begin
     id 4 
     name lfoot
     direction 0.0835106 -0.229444 0.969733   
     length 2.08772   
     axis -90 7.62852e-016 20   XYZ
    dof rx rz
    limits (-45.0 90.0)
           (-70.0 20.0)
  end
  begin
     id 5 
     name ltoes
     direction 1.5358e-011 -4.21925e-011 1   
     length 1.04844   
     axis -90 7.62852e-016 20   XYZ
    dof rx
    limits (-90.0 20.0)
  end
  begin
     id 6 
     name rhipjoint
     direction -0.644959 -0.672941 0.362185   
     length 2.39812  
     axis 0 0 0  XYZ 
  end
  begin
     id 7 
     name rfemur
     direction -0.34202 -0.939693 0   
     length 6.67015   
     axis 0 0 -20   XYZ
    dof rx ry rz
    limits (-160.0 20.0)
           (-70.0 70.0)
           (-70.0 60.0)
  end
  begin
     id 8 
     name rtibia
     direction -0.34202 -0.939693 0   
     length 7.35735   
     axis 0 0 -20   XYZ
    dof rx
    limits (-10.0 170.0)
 end
 begin
     id 9 
     name rfoot
     direction -0.0670769 -0.184292 0.98058   
     length 2.25469  
     axis -90 -7.62852e-016 -20   XYZ
    dof rx rz
    limits (-45.0 90.0)
           (-20.0 70.0)
  end
  begin
     id 10 
     name rtoes
     direction -1.53575e-011 -4.21908e-011 1   
     length 1.13399   
     axis -90 -7.62852e-016 -20   XYZ
    dof rx
    limits (-90.0 20.0)
  end
  begin
     id 11 
     name lowerback
     direction -0.0188328 0.993434 -0.112847   
     length 2.27656   
     axis 0 0 0   XYZ
    dof rx ry rz
    limits (-20.0 45.0)
           (-30.0 30.0)
           (-30.0 30.0)
  end
  begin
     id 12 
     name upperback
     direction 0.00983139 0.998968 -0.04435   
     length 2.28631   
     axis 0 0 0   XYZ
    dof rx ry rz
    limits (-20.0 45.0)
           (-30.0 30.0)
           (-30.0 30.0)
  end
  begin
     id 13 
     name thorax
     direction 0.0177718 0.999807 0.00833073   
     length 2.30999   
     axis 0 0 0   XYZ
    dof rx ry rz
    limits (-20.0 45.0)
           (-30.0 30.0)
           (-30.0 30.0)
  end
  begin
     id 14 
     name lowerneck
     direction -0.0835025 0.993181 0.0813558   
     length 1.39447   
     axis 0 0 0   XYZ
    dof rx ry rz
    limits (-20.0 45.0)
           (-30.0 30.0)
           (-30.0 30.0)
  end
  begin
     id 15 
     name upperneck
     direction 0.210059 0.976535 0.0474817   
     length 1.39882   
     axis 0 0 0   XYZ
    dof rx ry rz
    limits (-20.0 45.0)
           (-30.0 30.0)
           (-30.0 30.0)
  end
  begin
     id 16
     name head
     direction 0.0780891 0.996944 -0.00207154  
     length 1.41828  
     axis 0 0 0   XYZ
    dof rx ry rz
    limits (-20.0 45.0)
           (-30.0 30.0)
           (-30.0 30.0)
  end
  begin
     id 17 
     name lclavicle
     direction 0.982414 0.166355 -0.0847829  
     length 3.57922  
     axis 0 0 0   XYZ
    dof ry rz
    limits (-20.0 10.0)
           (0.0 20.0)
  end
  begin
     id 18 
     name lhumerus
     direction 1 -4.48975e-011 5.47647e-028   
     length 4.76405   
     axis -180 -30 -90   XYZ
    dof rx ry rz
    limits (-60.0 90.0)
           (-90.0 90.0)
           (-90.0 90.0)
  end
  begin
     id 19
     name lradius
     direction 1 -4.48949e-011 -8.32142e-027   
     length 3.13759   
     axis -180 -30 -90   XYZ
    dof rx
    limits (-10.0 170.0)
  end
  begin
     id 20
     name lwrist
     direction 1 -4.48978e-011 -1.32705e-026   
     length 1.56879   
     axis 9.60836e-015 90 90   XYZ
    dof ry
    limits (-180.0 0.0)
 end
  begin
     id 21 
     name lhand
     direction 1 -4.48975e-011 -2.65409e-026   
     length 0.732262   
     axis 1.69354e-014 90 90   XYZ
    dof rx rz
    limits (-90.0 90.0)
           (-45.0 45.0)
  end
  begin
     id 22 
     name lfingers
     direction 1 -4.48923e-011 -5.30819e-026   
     length 0.590368   
     axis 3.38708e-014 90 90   XYZ
    dof rx
    limits (0.0 90.0)
  end
  begin
     id 23
     name lthumb
     direction 0.707107 -6.34914e-011 0.707107   
     length 0.847654   
     axis -90 45 2.85299e-015   XYZ
    dof rx rz
    limits (-45.0 45.0)
           (-45.0 45.0)
  end
  begin
     id 24 
     name rclavicle
     direction -0.963658 0.245183 -0.106063   
     length 3.43472  
     axis 0 0 0   XYZ 
    dof ry rz
    limits (-10.0 20.0)
           (-20.0 0.0)
  end
  begin
     id 25 
     name rhumerus
     direction -1 -4.48963e-011 -1.64784e-027  
     length 5.10161   
     axis -180 30 90   XYZ
    dof rx ry rz
    limits (-90.0 60.0)
           (-90.0 90.0)
           (-90.0 90.0)
  end
  begin
     id 26 
     name rradius
     direction -1 -4.48969e-011 -2.87943e-027   
     length 3.23267   
     axis -180 30 90   XYZ
    dof rx
    limits (-10.0 170.0)
  end
  begin
     id 27 
     name rwrist
     direction -1 -4.48982e-011 -1.32705e-026   
     length 1.61633   
     axis 9.60836e-015 -90 -90   XYZ
    dof ry
    limits (-180.0 0.0)
  end
  begin
     id 28
     name rhand
     direction -1 -4.48963e-011 -2.65409e-026   
     length 0.702   
     axis 1.69354e-014 -90 -90   XYZ
    dof rx rz
    limits (-90.0 90.0)
           (-45.0 45.0)
  end
  begin
     id 29
     name rfingers
     direction -1 -4.48934e-011 -5.30819e-026   
     length 0.565971   
     axis 3.38708e-014 -90 -90   XYZ
    dof rx
    limits (0.0 90.0)
  end
  begin
     id 30
     name rthumb
     direction -0.707107 -6.34908e-011 0.707107   
     length 0.812624   
     axis -90 -45 -2.85299e-015   XYZ
    dof rx rz
    limits (-45.0 45.0)
           (-45.0 45.0)
  end
:hierarchy
  begin
    root lhipjoint rhipjoint lowerback
    lhipjoint lfemur
    lfemur ltibia
    ltibia lfoot
    lfoot ltoes
    rhipjoint rfemur
    rfemur rtibia
    rtibia rfoot
    rfoot rtoes
    lowerback upperback
    upperback thorax
    thorax lowerneck lclavicle rclavicle
    lowerneck upperneck
    upperneck head
    lclavicle lhumerus
    lhumerus lradius
    lradius lwrist
    lwrist lhand lthumb
    lhand lfingers
    rclavicle rhumerus
    rhumerus rradius
    rradius rwrist
    rwrist rhand rthumb
    rhand rfingers
  end

#!OML:ASF \\sashay\E\basketball\basketball\Project 1\Capture day 1\Session 1\Subject.ASF
:FULLY-SPECIFIED
:DEGREES
131
root 9.64789 15.3848 -13.699 2.59609 125.773 -14.8514
lowerback 17.349 7.2579 1.44703
upperback 8.04201 10.4225 -1.74062
thorax -0.386429 5.57924 -4.37534
lowerneck 10.4605 -17.0234 -21.1563
upperneck -25.1876 -21.2822 33.2186
head -2.30703 -11.7704 14.4571
rclavicle 4.77083e-015 8.42847e-014
rhumerus -23.7768 -19.6429 -83.9719
rradius 50.7501
rwrist -13.2817
rhand -34.7654 37.4878
rfingers 7.12502
rthumb -7.91835 7.65606
lclavicle 4.77083e-015 8.42847e-014
lhumerus 3.47685 41.9736 64.8935
lradius 96.1647
lwrist 61.2238
lhand 16.8006 41.6219
lfingers 7.12502
lthumb 41.5437 66.363
rfemur 11.7473 -8.50525 33.3641
rtibia 21.9679
rfoot 6.69227 -4.82323
rtoes -38.15
lfemur -56.8067 -4.69929 -19.5848
ltibia 57.7221
lfoot -3.78891 -9.71985
ltoes -31.755
132
root 10.1771 15.3779 -13.8534 3.26659 126.122 -13.4601
lowerback 17.2641 7.14462 1.94301
upperback 7.87553 10.3374 -1.77625
thorax -0.435227 5.54323 -4.66486
lowerneck 9.91878 -17.0241 -21.6781
upperneck -24.0825 -21.4333 33.5123
head -1.74472 -11.8034 14.4105
rclavicle 4.77083e-014 -3.49861e-014
rhumerus -23.5918 -18.1762 -84.9913
rradius 51.0746
rwrist -12.0453
rhand -34.1479 37.268
rfingers 7.12502
rthumb -7.32236 7.41469
lclavicle 4.77083e-014 -3.49861e-014
lhumerus 6.14235 39.6134 66.1127
lradius 97.7457
lwrist 58.2369
lhand 17.5021 41.9522
lfingers 7.12502
lthumb 42.2014 66.4744
rfemur 13.9187 -7.55477 34.6866
rtibia 21.8462
rfoot 7.47235 -7.2754
rtoes -37.4811
lfemur -56.1356 -3.56417 -20.3548
ltibia 53.4534
lfoot -2.10962 -11.9259
ltoes -31.786
133
root 10.7022 15.3601 -14.0141 4.28642 126.409 -11.8009
lowerback 16.908 6.98043 2.44929
upperback 7.74397 10.1816 -1.66734
thorax -0.34159 5.46909 -4.75665
lowerneck 10.5576 -16.8635 -23.0364
upperneck -24.0396 -21.4673 34.8568
head -1.40716 -11.8984 15.1288
rclavicle 2.17868e-013 6.20208e-014
rhumerus -23.3337 -16.3755 -85.8281
rradius 51.6277
rwrist -11.1114
rhand -33.1936 37.0954
rfingers 7.12502
rthumb -6.40107 7.21216
lclavicle 2.17868e-013 6.20208e-014
lhumerus 8.27081 37.2019 67.0796
lradius 99.8611
lwrist 55.12
lhand 17.6797 42.2259
lfingers 7.12502
lthumb 42.3678 66.6915
rfemur 15.5003 -7.05705 35.988
rtibia 22.513
rfoot 8.0409 -8.2365
rtoes -37.5292
lfemur -55.6262 -2.22787 -21.1128
ltibia 49.7006
lfoot -0.946603 -14.2344
ltoes -32.9899
134
root 11.2276 15.3419 -14.1755 5.29565 126.723 -10.1106
lowerback 16.6019 6.80203 3.00004
upperback 7.58938 10.0094 -1.54472
thorax -0.295331 5.38516 -4.86762
lowerneck 10.7212 -16.8262 -22.6177
upperneck -24.2517 -21.2764 34.961
head -1.58111 -11.844 15.1966
rclavicle -6.67916e-014 -6.36111e-015
rhumerus -23.2747 -14.7165 -86.5582
rradius 52.3998
rwrist -10.0184
rhand -32.37 37.7598
rfingers 7.12502
rthumb -5.60594 7.85393
lclavicle -6.67916e-014 -6.36111e-015
lhumerus 10.1371 34.335 68.0681
lradius 102.285
lwrist 51.1031
lhand 17.5396 41.9592
lfingers 7.12502
lthumb 42.2365 66.4695
rfemur 16.4609 -6.68574 37.2636
rtibia 24.2087
rfoot 8.04662 -8.61952
rtoes -36.6769
lfemur -54.9961 -1.81504 -21.3353
ltibia 46.5662
lfoot -0.578077 -15.6999
ltoes -36.1366
135
root 11.7419 15.3124 -14.3446 5.8666 127.275 -8.68804
lowerback 16.6246 6.52044 3.72767
upperback 7.37936 9.73645 -1.64409
thorax -0.418889 5.25858 -5.34536
lowerneck 11.0721 -16.7801 -21.8074
upperneck -24.2548 -21.0683 34.9309
head -1.81248 -11.8151 15.177
rclavicle -9.30312e-014 4.13472e-014
rhumerus -23.6753 -13.6488 -87.4959
rradius 53.4088
rwrist -8.28331
rhand -31.9771 38.7534
rfingers 7.12502
rthumb -5.22665 8.83781
lclavicle -9.30312e-014 4.13472e-014
lhumerus 11.7599 30.7182 68.65
lradius 105.002
lwrist 46.8268
lhand 16.2324 41.8671
lfingers 7.12502
lthumb 41.0104 66.7801
rfemur 17.072 -6.9117 38.1884
rtibia 26.7932
rfoot 7.25373 -8.64913
rtoes -35.2837
lfemur -54.132 -0.838131 -22.2169
ltibia 44.149
lfoot 0.223621 -17.478
ltoes -33.5464
136
root 12.2498 15.2843 -14.5117 6.705 127.677 -7.61331
lowerback 15.9505 6.12838 3.89317
upperback 7.21406 9.20187 -1.577
thorax -0.293345 4.98255 -5.21473
lowerneck 10.5522 -16.5771 -21.6054
upperneck -23.9513 -20.6668 34.8151
head -1.79671 -11.5643 15.1019
rclavicle -2.29795e-013 8.26944e-014
rhumerus -23.8845 -11.7374 -88.215
rradius 54.3931
rwrist -6.54706
rhand -31.8155 39.6816
rfingers 7.12502
rthumb -5.07063 9.76222
lclavicle -2.29795e-013 8.26944e-014
lhumerus 12.8439 27.7829 69.088
lradius 107.866
lwrist 42.2092
lhand 15.5443 41.8887
lfingers 7.12502
lthumb 40.3637 67.004
rfemur 16.5676 -7.18137 38.7737
rtibia 30.2565
rfoot 6.24751 -8.21473
rtoes -33.8988
lfemur -53.8205 -0.263579 -22.9744
ltibia 42.4227
lfoot 1.13099 -18.2201
ltoes -30.2738
137
root 12.7546 15.2507 -14.6793 6.63645 128.008 -7.23805
lowerback 15.7398 5.81585 3.72916
upperback 7.13455 8.75489 -1.63398
thorax -0.336392 4.75105 -5.108
lowerneck 10.426 -16.4421 -21.582
upperneck -23.5957 -20.4386 35.1831
head -1.67696 -11.4696 15.2344
rclavicle -2.06736e-014 1.11319e-014
rhumerus -24.1024 -10.3998 -88.8536
rradius 55.462
rwrist -5.16421
rhand -31.6009 40.7071
rfingers 7.12502
rthumb -4.86341 10.7829
lclavicle -2.06736e-014 1.11319e-014
lhumerus 13.9495 24.3555 69.561
lradius 110.541
lwrist 37.0056
lhand 15.5368 41.5922
lfingers 7.12502
lthumb 40.3567 66.7096
rfemur 15.9171 -7.83953 38.6872
rtibia 34.6359
rfoot 5.40419 -7.52208
rtoes -35.0995
lfemur -53.0141 -0.0668254 -23.8156
ltibia 41.3439
lfoot 2.19892 -18.4522
ltoes -26.226
